# Blender 3.1.2
# www.blender.org
mtllib Magazine.mtl
o Cube
v -0.082125 -0.290817 -0.353159
v -0.082125 -0.290817 0.446841
v -0.082125 0.249184 -0.353159
v -0.082125 0.249184 0.446841
v 0.077875 -0.290817 -0.353159
v 0.077875 -0.290817 0.446841
v 0.077875 0.249184 -0.353159
v 0.077875 0.249184 0.446841
v -0.082125 -0.290817 0.446841
v -0.082125 0.249184 0.446841
v 0.077875 -0.290817 0.446841
v 0.077875 0.249184 0.446841
v -0.082125 -0.020817 0.446841
v -0.002125 0.249184 0.446841
v 0.077875 -0.020817 0.446841
v -0.002125 -0.290817 0.436841
v -0.082125 0.114184 0.446841
v 0.037875 0.249184 0.446841
v 0.077875 -0.155817 0.446841
v -0.042125 -0.290817 0.436841
v -0.082125 -0.155817 0.446841
v -0.042125 0.249184 0.446841
v 0.077875 0.114184 0.446841
v 0.037875 -0.290817 0.436841
v -0.002125 0.114184 0.386841
v 0.037875 -0.020817 0.386841
v -0.042125 -0.020817 0.386841
v -0.042125 0.114184 0.386841
v 0.037875 0.114184 0.386841
v 0.037875 -0.155817 0.386841
v -0.042125 -0.155817 0.386841
v -0.022125 0.249184 0.446841
v 0.017875 -0.290817 0.436841
v -0.002125 -0.223317 0.386841
v 0.017875 0.249184 0.446841
v -0.022125 -0.290817 0.436841
v -0.002125 0.181684 0.436841
v -0.042125 0.046684 0.386841
v -0.042125 0.181684 0.436841
v -0.022125 0.114184 0.386841
v 0.037875 0.046684 0.386841
v 0.037875 0.181684 0.436841
v 0.017875 0.114184 0.386841
v 0.037875 -0.223317 0.386841
v 0.037875 -0.088317 0.386841
v -0.042125 -0.223317 0.386841
v -0.042125 -0.088317 0.386841
v -0.022125 -0.223317 0.386841
v 0.017875 0.181684 0.436841
v -0.022125 0.181684 0.436841
v 0.017875 -0.223317 0.386841
v -0.041804 -0.290817 0.436201
v -0.022202 -0.290817 0.436926
v -0.003276 -0.290817 0.437310
v 0.017870 -0.290817 0.436227
v 0.037980 -0.290817 0.435876
v -0.082125 -0.020817 -0.353159
v -0.082125 -0.290817 0.046841
v -0.082125 -0.020817 0.446841
v -0.082125 0.249184 0.046841
v -0.082125 -0.020817 0.046841
v -0.082125 -0.155817 -0.353159
v -0.082125 -0.290817 0.246841
v -0.082125 0.114184 0.446841
v -0.082125 0.249184 -0.153159
v -0.082125 0.114184 -0.353159
v -0.082125 -0.290817 -0.153159
v -0.082125 -0.155817 0.446841
v -0.082125 0.249184 0.246841
v -0.082125 0.114184 0.046841
v -0.082125 -0.155817 0.046841
v -0.082125 -0.020817 -0.153159
v -0.082125 -0.020817 0.246841
v -0.082125 -0.155817 0.246841
v -0.082125 0.114184 -0.153159
v -0.082125 -0.155817 -0.153159
v -0.082125 0.114184 0.246841
v -0.082125 -0.223317 -0.353159
v -0.082125 -0.290817 0.346841
v -0.082125 0.181684 0.446841
v -0.082125 0.249184 -0.253159
v -0.082125 0.046684 -0.353159
v -0.082125 -0.290817 -0.053159
v -0.082125 -0.088317 0.446841
v -0.082125 0.249184 0.146841
v -0.082125 0.181684 0.046841
v -0.082125 -0.088317 0.046841
v -0.082125 -0.020817 -0.253159
v -0.082125 -0.020817 0.146841
v -0.082125 -0.088317 -0.353159
v -0.082125 -0.290817 0.146841
v -0.082125 0.046684 0.446841
v -0.082125 0.249184 -0.053159
v -0.082125 0.181684 -0.353159
v -0.082125 -0.290817 -0.253159
v -0.082125 -0.223317 0.446841
v -0.082125 0.249184 0.346841
v -0.082125 0.046684 0.046841
v -0.082125 -0.020817 -0.053159
v -0.082125 -0.088317 0.246841
v -0.082125 -0.155817 0.146841
v -0.082125 0.181684 -0.153159
v -0.082125 0.046684 -0.153159
v -0.082125 0.114184 -0.253159
v -0.082125 0.114184 -0.053159
v -0.082125 -0.088317 -0.153159
v -0.082125 -0.155817 -0.253159
v -0.082125 -0.155817 -0.053159
v -0.082125 0.181684 0.246841
v -0.082125 0.046684 0.246841
v -0.082125 0.114184 0.146841
v -0.082125 0.046684 0.146841
v -0.082125 0.181684 0.146841
v -0.082125 -0.088317 -0.253159
v -0.082125 0.046684 -0.053159
v -0.082125 0.046684 -0.253159
v -0.082125 0.181684 -0.253159
v -0.082125 -0.088317 0.146841
v -0.082125 0.181684 -0.053159
v -0.082125 -0.088317 -0.053159
v 0.076435 -0.290817 -0.353159
v 0.076435 -0.290817 0.446841
v 0.076435 0.249184 -0.353159
v 0.076435 0.249184 0.446841
v 0.076435 -0.020817 -0.353159
v 0.076435 -0.290817 0.046841
v 0.076435 -0.020817 0.446841
v 0.076435 0.249184 0.046841
v 0.076435 -0.020817 0.046841
v 0.076435 -0.155817 -0.353159
v 0.076435 -0.290817 0.246841
v 0.076435 0.114184 0.446841
v 0.076435 0.249184 -0.153159
v 0.076435 0.114184 -0.353159
v 0.076435 -0.290817 -0.153159
v 0.076435 -0.155817 0.446841
v 0.076435 0.249184 0.246841
v 0.076435 0.114184 0.046841
v 0.076435 -0.155817 0.046841
v 0.076435 -0.020817 -0.153159
v 0.076435 -0.020817 0.246841
v 0.076435 -0.155817 0.246841
v 0.076435 0.114184 -0.153159
v 0.076435 -0.155817 -0.153159
v 0.076435 0.114184 0.246841
v 0.076435 -0.223317 -0.353159
v 0.076435 -0.290817 0.346841
v 0.076435 0.181684 0.446841
v 0.076435 0.249184 -0.253159
v 0.076435 0.046684 -0.353159
v 0.076435 -0.290817 -0.053159
v 0.076435 -0.088317 0.446841
v 0.076435 0.249184 0.146841
v 0.076435 0.181684 0.046841
v 0.076435 -0.088317 0.046841
v 0.076435 -0.020817 -0.253159
v 0.076435 -0.020817 0.146841
v 0.076435 -0.088317 -0.353159
v 0.076435 -0.290817 0.146841
v 0.076435 0.046684 0.446841
v 0.076435 0.249184 -0.053159
v 0.076435 0.181684 -0.353159
v 0.076435 -0.290817 -0.253159
v 0.076435 -0.223317 0.446841
v 0.076435 0.249184 0.346841
v 0.076435 0.046684 0.046841
v 0.076435 -0.020817 -0.053159
v 0.076435 -0.088317 0.246841
v 0.076435 -0.155817 0.146841
v 0.076435 0.181684 -0.153159
v 0.076435 0.046684 -0.153159
v 0.076435 0.114184 -0.253159
v 0.076435 0.114184 -0.053159
v 0.076435 -0.088317 -0.153159
v 0.076435 -0.155817 -0.253159
v 0.076435 -0.155817 -0.053159
v 0.076435 0.181684 0.246841
v 0.076435 0.046684 0.246841
v 0.076435 0.114184 0.146841
v 0.076435 0.046684 0.146841
v 0.076435 0.181684 0.146841
v 0.076435 -0.088317 -0.253159
v 0.076435 0.046684 -0.053159
v 0.076435 0.046684 -0.253159
v 0.076435 0.181684 -0.253159
v 0.076435 -0.088317 0.146841
v 0.076435 0.181684 -0.053159
v 0.076435 -0.088317 -0.053159
vn -0.0000 1.0000 -0.0000
vn -1.0000 -0.0000 -0.0000
vn -0.0000 -1.0000 -0.0000
vn -0.0000 -0.0000 -1.0000
vn 0.7595 0.1184 0.6396
vn 0.8321 -0.0000 0.5547
vn 0.4386 -0.1949 0.8773
vn -0.8321 -0.0000 0.5547
vn -0.4386 -0.1949 0.8773
vn -0.7595 0.1184 0.6396
vn -0.0000 -0.5952 0.8036
vn -0.0000 0.5952 0.8036
vn -0.0000 -0.1465 0.9892
vn -0.0000 -0.0000 1.0000
vt 0.340276 0.347662
vt 0.318472 0.325858
vt 0.340276 0.260449
vt 0.362079 0.347662
vt 0.362079 0.260449
vt 0.318472 0.304055
vt 0.340276 0.282252
vt 0.362079 0.282252
vt 0.340276 0.325858
vt 0.362079 0.325858
vt 0.340276 0.304055
vt 0.362079 0.304055
vt 0.595652 0.334817
vt 0.595652 0.316721
vt 0.577556 0.334817
vt 0.577556 0.316721
vt 0.595652 0.325769
vt 0.586604 0.316721
vt 0.577556 0.325769
vt 0.586604 0.334817
vt 0.595652 0.321245
vt 0.582080 0.316721
vt 0.577556 0.330293
vt 0.591128 0.334817
vt 0.595652 0.330293
vt 0.591128 0.316721
vt 0.577556 0.321245
vt 0.582080 0.334817
vt 0.586604 0.321245
vt 0.708659 0.299272
vt 0.582080 0.325769
vt 0.700160 0.307771
vt 0.591128 0.325769
vt 0.717158 0.307771
vt 0.591128 0.321245
vt 0.717158 0.299272
vt 0.582080 0.321245
vt 0.700160 0.299272
vt 0.582080 0.330293
vt 0.700160 0.316270
vt 0.591128 0.330293
vt 0.717158 0.316270
vt 0.588866 0.316721
vt 0.584342 0.334817
vt 0.586604 0.332555
vt 0.708659 0.320520
vt 0.584342 0.316721
vt 0.588866 0.334817
vt 0.586604 0.318983
vt 0.591128 0.323507
vt 0.717158 0.303521
vt 0.591128 0.318983
vt 0.588866 0.321245
vt 0.712909 0.299272
vt 0.582080 0.323507
vt 0.700160 0.303521
vt 0.582080 0.318983
vt 0.584342 0.321245
vt 0.704409 0.299272
vt 0.582080 0.332555
vt 0.700160 0.320520
vt 0.582080 0.328031
vt 0.700160 0.312021
vt 0.591128 0.332555
vt 0.717158 0.320520
vt 0.591128 0.328031
vt 0.717158 0.312021
vt 0.588866 0.332555
vt 0.712909 0.320520
vt 0.584342 0.318983
vt 0.588866 0.318983
vt 0.584342 0.332555
vt 0.704409 0.320520
vt 0.361789 0.342167
vt 0.361809 0.339496
vt 0.361819 0.336917
vt 0.361790 0.334035
vt 0.361780 0.331295
vt 0.318472 0.314957
vt 0.340276 0.271350
vt 0.425260 0.307825
vt 0.351177 0.347662
vt 0.351177 0.260449
vt 0.362079 0.271350
vt 0.351177 0.282252
vt 0.351177 0.271350
vt 0.456790 0.307825
vt 0.318472 0.320408
vt 0.425260 0.292060
vt 0.340276 0.265900
vt 0.356628 0.347662
vt 0.356628 0.260449
vt 0.362079 0.276801
vt 0.345726 0.282252
vt 0.318472 0.309506
vt 0.425260 0.323590
vt 0.340276 0.276801
vt 0.345726 0.347662
vt 0.345726 0.260449
vt 0.362079 0.265900
vt 0.356628 0.282252
vt 0.456790 0.323590
vt 0.351177 0.276801
vt 0.456790 0.292060
vt 0.351177 0.265900
vt 0.345726 0.271350
vt 0.441025 0.307825
vt 0.356628 0.271350
vt 0.472555 0.307825
vt 0.472555 0.292060
vt 0.356628 0.265900
vt 0.441025 0.323590
vt 0.345726 0.276801
vt 0.441025 0.292060
vt 0.345726 0.265900
vt 0.472555 0.323590
vt 0.356628 0.276801
vt 0.318472 0.323133
vt 0.340276 0.263174
vt 0.359353 0.347662
vt 0.359353 0.260449
vt 0.362079 0.279527
vt 0.343001 0.282252
vt 0.318472 0.312231
vt 0.340276 0.274076
vt 0.425260 0.315708
vt 0.348452 0.347662
vt 0.348452 0.260449
vt 0.362079 0.268625
vt 0.353903 0.282252
vt 0.456790 0.331473
vt 0.351177 0.279527
vt 0.456790 0.299943
vt 0.351177 0.268625
vt 0.343001 0.271350
vt 0.433142 0.307825
vt 0.353903 0.271350
vt 0.464673 0.307825
vt 0.318472 0.317682
vt 0.425260 0.299943
vt 0.340276 0.268625
vt 0.353903 0.347662
vt 0.353903 0.260449
vt 0.362079 0.274076
vt 0.348452 0.282252
vt 0.318472 0.306781
vt 0.425260 0.331473
vt 0.340276 0.279527
vt 0.343001 0.347662
vt 0.343001 0.260449
vt 0.362079 0.263174
vt 0.359353 0.282252
vt 0.351177 0.274076
vt 0.456790 0.315708
vt 0.348452 0.271350
vt 0.448907 0.307825
vt 0.472555 0.299943
vt 0.356628 0.268625
vt 0.464673 0.292060
vt 0.353903 0.265900
vt 0.441025 0.331473
vt 0.345726 0.279527
vt 0.345726 0.274076
vt 0.441025 0.315708
vt 0.433142 0.323590
vt 0.343001 0.276801
vt 0.448907 0.323590
vt 0.348452 0.276801
vt 0.441025 0.299943
vt 0.345726 0.268625
vt 0.433142 0.292060
vt 0.343001 0.265900
vt 0.448907 0.292060
vt 0.348452 0.265900
vt 0.472555 0.331473
vt 0.356628 0.279527
vt 0.356628 0.274076
vt 0.472555 0.315708
vt 0.464673 0.323590
vt 0.353903 0.276801
vt 0.353903 0.274076
vt 0.464673 0.315708
vt 0.464673 0.331473
vt 0.353903 0.279527
vt 0.433142 0.299943
vt 0.343001 0.268625
vt 0.348452 0.274076
vt 0.448907 0.315708
vt 0.343001 0.274076
vt 0.433142 0.315708
vt 0.433142 0.331473
vt 0.343001 0.279527
vt 0.464673 0.299943
vt 0.353903 0.268625
vt 0.448907 0.331473
vt 0.348452 0.279527
vt 0.448907 0.299943
vt 0.348452 0.268625
vt 0.340276 0.260449
vt 0.362079 0.260449
vt 0.340276 0.282252
vt 0.362079 0.282252
vt 0.340276 0.271350
vt 0.425260 0.307825
vt 0.351177 0.260449
vt 0.362079 0.271350
vt 0.351177 0.282252
vt 0.351177 0.271350
vt 0.456790 0.307825
vt 0.425260 0.292060
vt 0.340276 0.265900
vt 0.356628 0.260449
vt 0.362079 0.276801
vt 0.345726 0.282252
vt 0.425260 0.323590
vt 0.340276 0.276801
vt 0.345726 0.260449
vt 0.362079 0.265900
vt 0.356628 0.282252
vt 0.456790 0.323590
vt 0.351177 0.276801
vt 0.456790 0.292060
vt 0.351177 0.265900
vt 0.345726 0.271350
vt 0.441025 0.307825
vt 0.356628 0.271350
vt 0.472555 0.307825
vt 0.472555 0.292060
vt 0.356628 0.265900
vt 0.441025 0.323590
vt 0.345726 0.276801
vt 0.441025 0.292060
vt 0.345726 0.265900
vt 0.472555 0.323590
vt 0.356628 0.276801
vt 0.340276 0.263174
vt 0.359353 0.260449
vt 0.362079 0.279527
vt 0.343001 0.282252
vt 0.340276 0.274076
vt 0.425260 0.315708
vt 0.348452 0.260449
vt 0.362079 0.268625
vt 0.353903 0.282252
vt 0.456790 0.331473
vt 0.351177 0.279527
vt 0.456790 0.299943
vt 0.351177 0.268625
vt 0.343001 0.271350
vt 0.433142 0.307825
vt 0.353903 0.271350
vt 0.464673 0.307825
vt 0.425260 0.299943
vt 0.340276 0.268625
vt 0.353903 0.260449
vt 0.362079 0.274076
vt 0.348452 0.282252
vt 0.425260 0.331473
vt 0.340276 0.279527
vt 0.343001 0.260449
vt 0.362079 0.263174
vt 0.359353 0.282252
vt 0.351177 0.274076
vt 0.456790 0.315708
vt 0.348452 0.271350
vt 0.448907 0.307825
vt 0.472555 0.299943
vt 0.356628 0.268625
vt 0.464673 0.292060
vt 0.353903 0.265900
vt 0.441025 0.331473
vt 0.345726 0.279527
vt 0.345726 0.274076
vt 0.441025 0.315708
vt 0.433142 0.323590
vt 0.343001 0.276801
vt 0.448907 0.323590
vt 0.348452 0.276801
vt 0.441025 0.299943
vt 0.345726 0.268625
vt 0.433142 0.292060
vt 0.343001 0.265900
vt 0.448907 0.292060
vt 0.348452 0.265900
vt 0.472555 0.331473
vt 0.356628 0.279527
vt 0.356628 0.274076
vt 0.472555 0.315708
vt 0.464673 0.323590
vt 0.353903 0.276801
vt 0.353903 0.274076
vt 0.464673 0.315708
vt 0.464673 0.331473
vt 0.353903 0.279527
vt 0.433142 0.299943
vt 0.343001 0.268625
vt 0.348452 0.274076
vt 0.448907 0.315708
vt 0.343001 0.274076
vt 0.433142 0.315708
vt 0.433142 0.331473
vt 0.343001 0.279527
vt 0.464673 0.299943
vt 0.353903 0.268625
vt 0.448907 0.331473
vt 0.348452 0.279527
vt 0.448907 0.299943
vt 0.348452 0.268625
s 0
usemtl Material.002
f 3/7/1 81/123/1 65/94/1 93/145/1 60/85/1 85/130/1 69/101/1 97/152/1 4/8/1 8/12/1 7/11/1
f 138/220/2 179/289/2 145/234/2 177/285/2 181/293/2 154/245/2 187/305/2 170/271/2 185/301/2 162/258/2 134/215/2 172/275/2 143/230/2 173/277/2
f 5/9/3 6/10/3 56/78/3 55/77/3 54/76/3 53/75/3 52/74/3 2/4/3 79/120/3 63/91/3 91/142/3 58/82/3 83/127/3 67/98/3 95/149/3 1/1/3
f 3/6/4 7/11/4 5/9/4 1/2/4 78/118/4 62/88/4 90/139/4 57/79/4 82/124/4 66/95/4 94/146/4
f 31/41/5 21/25/5 9/13/5 20/24/5 46/64/5
f 28/35/6 17/21/6 13/17/6 27/33/6 38/50/6
f 22/26/7 10/14/7 17/21/7 28/35/7 39/52/7
f 23/27/8 29/37/8 41/55/8 26/31/8 15/19/8
f 12/16/9 18/22/9 42/57/9 29/37/9 23/27/9
f 19/23/10 30/39/10 44/60/10 24/28/10 11/15/10
f 15/19/8 26/31/8 45/62/8 30/39/8 19/23/8
f 50/71/11 39/52/11 28/35/11 40/53/11 25/29/11 43/58/11 29/37/11 42/57/11 49/70/11 37/49/11
f 27/33/6 13/17/6 21/25/6 31/41/6 47/66/6
f 51/72/12 34/45/12 48/68/12 46/64/12 20/24/12 36/48/12 16/20/12 33/44/12 24/28/12 44/60/12
f 18/22/13 35/47/13 14/18/13 32/43/13 22/26/13 39/52/13 50/71/13 37/49/13 49/70/13 42/57/13
f 70/102/2 111/179/2 77/116/2 109/175/2 113/183/2 86/131/2 119/195/2 102/161/2 117/191/2 94/147/2 66/96/2 104/165/2 75/112/2 105/167/2
f 62/89/2 107/171/2 76/114/2 108/173/2 71/104/2 101/159/2 74/110/2 100/157/2 118/193/2 87/133/2 120/197/2 106/169/2 114/185/2 90/140/2
f 80/122/2 4/8/2 97/152/2 69/101/2 85/130/2 60/85/2 93/145/2 65/94/2 81/123/2 3/7/2 94/148/2 117/192/2 102/162/2 119/196/2 86/132/2 113/184/2 109/176/2 77/117/2 111/180/2 70/103/2 105/168/2 75/113/2 104/166/2 66/97/2 82/125/2 116/189/2 103/163/2 115/187/2 98/153/2 112/181/2 110/177/2 73/108/2 89/137/2 61/86/2 99/155/2 72/106/2 88/135/2 57/80/2 90/141/2 114/186/2 106/170/2 120/198/2 87/134/2 118/194/2 100/158/2 74/111/2 101/160/2 71/105/2 108/174/2 76/115/2 107/172/2 62/90/2 78/119/2 1/3/2 95/150/2 67/99/2 83/128/2 58/83/2 91/143/2 63/92/2 79/121/2 2/5/2 96/151/2 68/100/2 84/129/2 59/84/2 92/144/2 64/93/2
f 61/87/2 89/138/2 73/109/2 110/178/2 112/182/2 98/154/2 115/188/2 103/164/2 116/190/2 82/126/2 57/81/2 88/136/2 72/107/2 99/156/2
f 130/210/2 175/281/2 144/232/2 176/283/2 139/222/2 169/269/2 142/228/2 168/267/2 186/303/2 155/247/2 188/307/2 174/279/2 182/295/2 158/253/2
f 148/238/2 124/202/2 165/262/2 137/219/2 153/244/2 128/207/2 161/257/2 133/214/2 149/239/2 123/201/2 162/259/2 185/302/2 170/272/2 187/306/2 154/246/2 181/294/2 177/286/2 145/235/2 179/290/2 138/221/2 173/278/2 143/231/2 172/276/2 134/216/2 150/240/2 184/299/2 171/273/2 183/297/2 166/263/2 180/291/2 178/287/2 141/226/2 157/251/2 129/208/2 167/265/2 140/224/2 156/249/2 125/203/2 158/254/2 182/296/2 174/280/2 188/308/2 155/248/2 186/304/2 168/268/2 142/229/2 169/270/2 139/223/2 176/284/2 144/233/2 175/282/2 130/211/2 146/236/2 121/199/2 163/260/2 135/217/2 151/242/2 126/205/2 159/255/2 131/212/2 147/237/2 122/200/2 164/261/2 136/218/2 152/243/2 127/206/2 160/256/2 132/213/2
f 129/209/2 157/252/2 141/227/2 178/288/2 180/292/2 166/264/2 183/298/2 171/274/2 184/300/2 150/241/2 125/204/2 156/250/2 140/225/2 167/266/2
f 43/59/14 25/30/14 40/54/14 28/36/14 38/51/14 27/34/14 47/67/14 31/42/14 46/65/14 48/69/14 34/46/14 51/73/14 44/61/14 30/40/14 45/63/14 26/32/14 41/56/14 29/38/14
